<svg width="96" height="67" viewBox="0 0 96 67" fill="none" xmlns="http://www.w3.org/2000/svg">
<path d="M71.2035 32.4688C65.8874 32.4688 61.5625 36.7937 61.5625 42.1097C61.5625 47.4257 65.8874 51.7507 71.2035 51.7507C76.5195 51.7507 80.8444 47.4259 80.8444 42.1097C80.8444 36.7937 76.5195 32.4688 71.2035 32.4688ZM71.2035 48.9228C67.4468 48.9228 64.3904 45.8664 64.3904 42.1097C64.3904 38.353 67.4468 35.2966 71.2035 35.2966C74.9601 35.2966 78.0165 38.353 78.0165 42.1097C78.0165 45.8664 74.9601 48.9228 71.2035 48.9228Z" fill="#001219"/>
<path d="M29.4887 37.6397V31.3359H20.5538V37.6397H14.25V46.5745H20.5538V52.8782H29.4887V46.5745H35.7925V37.6397H29.4887ZM32.9648 43.7466H26.661V50.0503H23.3818V43.7466H17.0779V40.4676H23.3817V34.1638H26.6608V40.4676H32.9648V43.7466V43.7466Z" fill="#001219"/>
<path d="M59.846 3.7185H95.7047V0.890625H59.846C52.5909 0.890625 46.6884 6.79313 46.6884 14.0482V17.5942H25.0081C11.4943 17.5942 0.5 28.5883 0.5 42.1024C0.5 55.6164 11.4943 66.6105 25.0081 66.6105C33.237 66.6105 40.785 62.5714 45.3555 55.7657H50.8491C55.4197 62.5715 62.9677 66.6105 71.1965 66.6105C84.7104 66.6105 95.7047 55.6164 95.7047 42.1024C95.7047 28.5883 84.7104 17.5942 71.1965 17.5942H49.5163V14.0482C49.5163 8.35248 54.1503 3.7185 59.846 3.7185ZM49.5163 20.4221H71.1965C83.1511 20.4221 92.8768 30.1478 92.8768 42.1024C92.8768 54.0569 83.1511 63.7826 71.1965 63.7826C63.6837 63.7826 56.8119 59.9763 52.8148 53.6005L52.399 52.9375H43.8053L43.3895 53.6005C39.3922 59.9761 32.5208 63.7826 25.0078 63.7826C13.0533 63.7826 3.3275 54.0569 3.3275 42.1024C3.3275 30.1478 13.0533 20.4221 25.0078 20.4221H46.688H49.5163V20.4221Z" fill="#001219"/>
<path d="M71.199 23.2578H38.8672V26.0857H71.199V23.2578Z" fill="#001219"/>
<path d="M35.0939 23.2578H25.0078V26.0857H35.0939V23.2578Z" fill="#001219"/>
</svg>
