<svg width="5680" height="5353" viewBox="0 0 5680 5353" fill="none" xmlns="http://www.w3.org/2000/svg">
<path fill-rule="evenodd" clip-rule="evenodd" d="M2839.02 0C2164.81 0.339904 1512.7 232.37 999.301 654.602C485.903 1076.83 144.696 1661.73 36.6903 2304.71C-71.3157 2947.69 60.921 3606.83 409.758 4164.26C758.595 4721.68 1301.28 5141.05 1940.79 5347.38C2081.87 5372.82 2135.01 5287.86 2135.01 5215.62C2135.01 5143.37 2132.19 4933.91 2131.25 4704.91C1341.18 4870.76 1174.23 4380.95 1174.23 4380.95C1045.37 4062.9 859.138 3979.3 859.138 3979.3C601.423 3809.37 878.421 3812.55 878.421 3812.55C1163.88 3832.08 1313.9 4095.62 1313.9 4095.62C1566.91 4514.99 1978.41 4393.68 2140.18 4322.8C2165.58 4145.14 2239.41 4024.28 2320.77 3955.67C1689.66 3886.61 1026.56 3651.25 1026.56 2599.86C1022.65 2327.18 1127.38 2063.49 1319.07 1863.34C1289.92 1794.27 1192.57 1515.3 1346.82 1136.36C1346.82 1136.36 1585.25 1062.75 2127.96 1417.61C2593.46 1294.62 3084.59 1294.62 3550.09 1417.61C4092.32 1062.75 4330.29 1136.36 4330.29 1136.36C4485.01 1514.39 4387.66 1793.37 4358.5 1863.34C4550.81 2063.52 4655.76 2327.68 4651.49 2600.77C4651.49 3654.43 3986.98 3886.61 3354.92 3954.31C3456.5 4039.73 3547.27 4206.48 3547.27 4462.74C3547.27 4829.86 3543.98 5125.2 3543.98 5215.62C3543.98 5288.77 3595.24 5374.19 3739.14 5347.38C4378.72 5141.03 4921.46 4721.58 5270.29 4164.06C5619.12 3606.54 5751.29 2947.31 5643.16 2304.27C5535.03 1661.23 5193.66 1076.32 4680.09 654.161C4166.52 232.002 3514.26 0.124456 2839.96 0H2839.02Z" fill="#41B3A7"/>
</svg>
