<svg width="14595" height="8500" viewBox="0 0 14595 8500" fill="none" xmlns="http://www.w3.org/2000/svg">
<path d="M6670.13 1907.16L6614.9 1811.49L6423.56 1921.96L6478.79 2017.63L6670.13 1907.16ZM7238.27 3333.09C7268.78 3385.93 7336.34 3404.03 7389.18 3373.52C7442.02 3343.02 7460.12 3275.46 7429.61 3222.62L7238.27 3333.09ZM6478.79 2017.63L7238.27 3333.09L7429.61 3222.62L6670.13 1907.16L6478.79 2017.63Z" fill="white"/>
<path d="M7296.33 3222.93C7265.82 3275.77 7283.93 3343.33 7336.76 3373.83C7389.6 3404.34 7457.16 3386.24 7487.67 3333.4L7296.33 3222.93ZM8247.11 2018L8302.35 1922.33L8111.01 1811.86L8055.77 1907.53L8247.11 2018ZM7487.67 3333.4L8247.11 2018L8055.77 1907.53L7296.33 3222.93L7487.67 3333.4Z" fill="white"/>
<path d="M6692.37 957.781L6637.13 862.111L6445.79 972.581L6501.03 1068.25L6692.37 957.781ZM7260.51 2383.71C7291.01 2436.55 7358.58 2454.65 7411.41 2424.15C7464.25 2393.64 7482.35 2326.08 7451.85 2273.24L7260.51 2383.71ZM6501.03 1068.25L7260.51 2383.71L7451.85 2273.24L6692.37 957.781L6501.03 1068.25Z" fill="white"/>
<path d="M7318.56 2273.51C7288.06 2326.35 7306.16 2393.91 7359 2424.42C7411.84 2454.93 7479.4 2436.82 7509.9 2383.99L7318.56 2273.51ZM8269.35 1068.59L8324.58 972.921L8133.24 862.451L8078.01 958.121L8269.35 1068.59ZM7509.9 2383.99L8269.35 1068.59L8078.01 958.121L7318.56 2273.51L7509.9 2383.99Z" fill="white"/>
<path d="M6692.37 95.7649L6637.13 0.0948819L6445.79 110.565L6501.03 206.235L6692.37 95.7649ZM7260.51 1521.7C7291.01 1574.53 7358.58 1592.64 7411.41 1562.13C7464.25 1531.63 7482.35 1464.06 7451.85 1411.23L7260.51 1521.7ZM6501.03 206.235L7260.51 1521.7L7451.85 1411.23L6692.37 95.7649L6501.03 206.235Z" fill="white"/>
<path d="M7318.56 1411.5C7288.06 1464.34 7306.16 1531.9 7359 1562.4C7411.84 1592.91 7479.4 1574.81 7509.9 1521.97L7318.56 1411.5ZM8269.35 206.575L8324.58 110.905L8133.24 0.434883L8078.01 96.1049L8269.35 206.575ZM7509.9 1521.97L8269.35 206.575L8078.01 96.1049L7318.56 1411.5L7509.9 1521.97Z" fill="white"/>
<path d="M696.725 7494.69C588.746 7494.69 491.907 7476.69 406.209 7440.7C320.511 7402.99 252.809 7351.57 203.104 7286.44C153.4 7219.59 125.976 7143.32 120.834 7057.63H362.503C369.359 7127.9 401.924 7185.32 460.199 7229.88C520.187 7274.44 598.173 7296.72 694.154 7296.72C783.281 7296.72 853.553 7277.01 904.972 7237.59C956.391 7198.17 982.1 7148.47 982.1 7088.48C982.1 7026.77 954.677 6981.35 899.83 6952.22C844.983 6921.37 760.142 6891.37 645.307 6862.23C540.755 6834.81 455.057 6807.39 388.212 6779.96C323.082 6750.83 266.521 6708.83 218.53 6653.99C172.253 6597.43 149.115 6523.73 149.115 6432.89C149.115 6360.9 170.539 6294.91 213.388 6234.92C256.237 6174.93 317.083 6127.8 395.925 6093.52C474.767 6057.53 564.75 6039.53 665.874 6039.53C821.845 6039.53 947.821 6078.95 1043.8 6157.8C1139.78 6236.64 1191.2 6344.62 1198.06 6481.73H964.103C958.962 6408.03 928.967 6348.9 874.12 6304.34C820.988 6259.78 749.001 6237.49 658.161 6237.49C574.177 6237.49 507.333 6255.49 457.628 6291.48C407.923 6327.48 383.07 6374.61 383.07 6432.89C383.07 6479.16 397.639 6517.73 426.776 6548.58C457.628 6577.72 495.335 6601.71 539.898 6620.56C586.175 6637.7 649.591 6657.42 730.148 6679.7C831.271 6707.12 913.542 6734.54 976.958 6761.97C1040.37 6787.68 1094.36 6827.1 1138.93 6880.23C1185.2 6933.36 1209.2 7002.78 1210.91 7088.48C1210.91 7165.6 1189.49 7235.02 1146.64 7296.72C1103.79 7358.43 1042.95 7407.27 964.103 7443.27C886.975 7477.55 797.849 7494.69 696.725 7494.69ZM1453.77 6764.54C1453.77 6618.85 1482.9 6492.02 1541.18 6384.04C1599.45 6274.34 1680.01 6189.5 1782.85 6129.51C1887.4 6069.53 2006.52 6039.53 2140.21 6039.53C2313.32 6039.53 2455.58 6081.52 2566.99 6165.51C2680.11 6249.49 2754.66 6366.04 2790.66 6515.16H2538.71C2514.71 6429.46 2467.58 6361.76 2397.3 6312.05C2328.74 6262.35 2243.05 6237.49 2140.21 6237.49C2006.52 6237.49 1898.54 6283.77 1816.27 6376.33C1734 6467.17 1692.87 6596.57 1692.87 6764.54C1692.87 6934.22 1734 7065.34 1816.27 7157.89C1898.54 7250.45 2006.52 7296.72 2140.21 7296.72C2243.05 7296.72 2328.74 7272.73 2397.3 7224.74C2465.86 7176.75 2513 7108.19 2538.71 7019.06H2790.66C2752.95 7163.03 2677.54 7278.73 2564.41 7366.14C2451.29 7451.84 2309.89 7494.69 2140.21 7494.69C2006.52 7494.69 1887.4 7464.69 1782.85 7404.7C1680.01 7344.71 1599.45 7259.87 1541.18 7150.18C1482.9 7040.49 1453.77 6911.94 1453.77 6764.54ZM3336.78 6291.48C3377.92 6210.93 3436.19 6148.37 3511.61 6103.81C3588.73 6059.24 3682.15 6036.96 3791.84 6036.96V6278.63H3730.14C3467.9 6278.63 3336.78 6420.89 3336.78 6705.41V7471.55H3102.83V6062.67H3336.78V6291.48ZM4676.36 7494.69C4544.39 7494.69 4424.41 7464.69 4316.43 7404.7C4210.17 7344.71 4126.18 7259.87 4064.48 7150.18C4004.49 7038.77 3974.5 6910.22 3974.5 6764.54C3974.5 6620.56 4005.35 6493.73 4067.05 6384.04C4130.47 6272.63 4216.16 6187.79 4324.14 6129.51C4432.12 6069.53 4552.96 6039.53 4686.65 6039.53C4820.34 6039.53 4941.17 6069.53 5049.15 6129.51C5157.13 6187.79 5241.97 6271.77 5303.67 6381.47C5367.09 6491.16 5398.8 6618.85 5398.8 6764.54C5398.8 6910.22 5366.23 7038.77 5301.1 7150.18C5237.69 7259.87 5151.13 7344.71 5041.44 7404.7C4931.74 7464.69 4810.05 7494.69 4676.36 7494.69ZM4676.36 7289.01C4760.35 7289.01 4839.19 7269.3 4912.89 7229.88C4986.59 7190.46 5045.72 7131.33 5090.29 7052.48C5136.56 6973.64 5159.7 6877.66 5159.7 6764.54C5159.7 6651.42 5137.42 6555.43 5092.86 6476.59C5048.29 6397.75 4990.02 6339.48 4918.03 6301.77C4846.05 6262.35 4768.06 6242.64 4684.08 6242.64C4598.38 6242.64 4519.54 6262.35 4447.55 6301.77C4377.28 6339.48 4320.72 6397.75 4277.87 6476.59C4235.02 6555.43 4213.59 6651.42 4213.59 6764.54C4213.59 6879.37 4234.16 6976.21 4275.3 7055.05C4318.15 7133.9 4374.71 7193.03 4444.98 7232.45C4515.25 7270.16 4592.38 7289.01 4676.36 7289.01ZM5940.36 5569.05V7471.55H5706.41V5569.05H5940.36ZM6573.06 5569.05V7471.55H6339.1V5569.05H6573.06ZM7569.8 6761.97C7569.8 6617.99 7598.94 6492.02 7657.21 6384.04C7715.49 6274.34 7795.18 6189.5 7896.31 6129.51C7999.15 6069.53 8113.98 6039.53 8240.81 6039.53C8350.51 6039.53 8452.49 6065.24 8546.76 6116.66C8641.02 6166.37 8713.01 6232.35 8762.72 6314.62V5569.05H8999.24V7471.55H8762.72V7206.74C8716.44 7290.72 8647.88 7360.14 8557.04 7414.99C8466.2 7468.12 8359.93 7494.69 8238.24 7494.69C8113.12 7494.69 7999.15 7463.83 7896.31 7402.13C7795.18 7340.43 7715.49 7253.87 7657.21 7142.47C7598.94 7031.06 7569.8 6904.23 7569.8 6761.97ZM8762.72 6764.54C8762.72 6658.27 8741.29 6565.72 8698.44 6486.88C8655.59 6408.03 8597.32 6348.05 8523.62 6306.91C8451.63 6264.06 8371.93 6242.64 8284.52 6242.64C8197.11 6242.64 8117.41 6263.2 8045.42 6304.34C7973.44 6345.47 7916.02 6405.46 7873.17 6484.3C7830.32 6563.15 7808.9 6655.7 7808.9 6761.97C7808.9 6869.95 7830.32 6964.21 7873.17 7044.77C7916.02 7123.61 7973.44 7184.46 8045.42 7227.31C8117.41 7268.44 8197.11 7289.01 8284.52 7289.01C8371.93 7289.01 8451.63 7268.44 8523.62 7227.31C8597.32 7184.46 8655.59 7123.61 8698.44 7044.77C8741.29 6964.21 8762.72 6870.8 8762.72 6764.54ZM10009.1 7494.69C9877.09 7494.69 9757.11 7464.69 9649.13 7404.7C9542.86 7344.71 9458.88 7259.87 9397.18 7150.18C9337.19 7038.77 9307.19 6910.22 9307.19 6764.54C9307.19 6620.56 9338.04 6493.73 9399.75 6384.04C9463.16 6272.63 9548.86 6187.79 9656.84 6129.51C9764.82 6069.53 9885.66 6039.53 10019.3 6039.53C10153 6039.53 10273.9 6069.53 10381.8 6129.51C10489.8 6187.79 10574.7 6271.77 10636.4 6381.47C10699.8 6491.16 10731.5 6618.85 10731.5 6764.54C10731.5 6910.22 10698.9 7038.77 10633.8 7150.18C10570.4 7259.87 10483.8 7344.71 10374.1 7404.7C10264.4 7464.69 10142.7 7494.69 10009.1 7494.69ZM10009.1 7289.01C10093 7289.01 10171.9 7269.3 10245.6 7229.88C10319.3 7190.46 10378.4 7131.33 10423 7052.48C10469.3 6973.64 10492.4 6877.66 10492.4 6764.54C10492.4 6651.42 10470.1 6555.43 10425.6 6476.59C10381 6397.75 10322.7 6339.48 10250.7 6301.77C10178.7 6262.35 10100.8 6242.64 10016.8 6242.64C9931.08 6242.64 9852.23 6262.35 9780.25 6301.77C9709.97 6339.48 9653.41 6397.75 9610.56 6476.59C9567.72 6555.43 9546.29 6651.42 9546.29 6764.54C9546.29 6879.37 9566.86 6976.21 9607.99 7055.05C9650.84 7133.9 9707.4 7193.03 9777.68 7232.45C9847.95 7270.16 9925.08 7289.01 10009.1 7289.01ZM12915.9 6062.67L12476.3 7471.55H12234.6L11895.2 6353.19L11555.9 7471.55H11314.2L10872 6062.67H11111.1L11435 7245.3L11784.7 6062.67H12023.8L12365.7 7247.87L12684.5 6062.67H12915.9ZM13834.5 6036.96C14005.9 6036.96 14144.7 6089.24 14251 6193.79C14357.3 6296.63 14410.4 6445.74 14410.4 6641.13V7471.55H14179V6674.55C14179 6534.01 14143.9 6426.89 14073.6 6353.19C14003.3 6277.77 13907.4 6240.07 13785.7 6240.07C13662.3 6240.07 13563.7 6278.63 13490 6355.76C13418 6432.89 13382 6545.15 13382 6692.55V7471.55H13148.1V6062.67H13382V6263.2C13428.3 6191.22 13490.9 6135.51 13569.7 6096.09C13650.3 6056.67 13738.5 6036.96 13834.5 6036.96Z" fill="white"/>
</svg>
