<svg width="4943" height="4943" viewBox="0 0 4943 4943" fill="none" xmlns="http://www.w3.org/2000/svg">
<path d="M4941.27 0H1.44806C0.64832 0 0 0.64832 0 1.44806V4941.27C0 4942.07 0.64832 4942.72 1.44806 4942.72H4941.27C4942.07 4942.72 4942.72 4942.07 4942.72 4941.27V1.44806C4942.72 0.64832 4942.07 0 4941.27 0Z" fill="#41B3A7"/>
<path d="M3127.73 3571.91C3224.27 3736.02 3359.42 3851.87 3581.45 3851.87C3774.53 3851.87 3900.03 3755.33 3900.03 3620.18C3900.03 3465.72 3774.53 3407.8 3562.15 3311.26L3446.3 3262.99C3108.42 3118.18 2886.38 2944.41 2886.38 2567.92C2886.38 2220.38 3147.04 1950.08 3562.15 1950.08C3861.41 1950.08 4073.8 2056.27 4218.6 2326.57L3861.41 2558.26C3784.18 2413.46 3697.3 2355.54 3562.15 2355.54C3426.99 2355.54 3340.11 2442.42 3340.11 2558.26C3340.11 2693.42 3426.99 2751.34 3629.72 2838.22L3745.57 2886.49C4141.37 3060.26 4363.41 3224.37 4363.41 3620.18C4363.41 4035.29 4035.18 4266.98 3591.11 4266.98C3156.69 4266.98 2876.73 4064.25 2741.58 3793.95L3127.73 3571.91ZM1486.59 3610.52C1563.82 3736.02 1621.74 3851.87 1785.86 3851.87C1940.32 3851.87 2036.85 3793.95 2036.85 3562.26V1959.73H2500.23V3542.95C2500.23 4025.64 2220.28 4238.02 1805.16 4238.02C1428.67 4238.02 1216.29 4044.94 1110.09 3813.25L1486.59 3610.52Z" fill="white"/>
</svg>
