<svg width="5690" height="5521" viewBox="0 0 5690 5521" fill="none" xmlns="http://www.w3.org/2000/svg">
<path d="M5268.15 0H420.029C187.791 0 0 177.918 0 397.89V5121.88C0 5341.86 187.791 5520.85 420.029 5520.85H5268.15C5500.38 5520.85 5689.29 5341.86 5689.29 5122.96V397.89C5689.29 177.918 5500.38 0 5268.15 0ZM1687.9 4704.59H843.392V2069.24H1687.9V4704.59ZM1265.64 1710.17C994.514 1710.17 775.61 1497.75 775.61 1235.72C775.61 973.697 994.514 761.274 1265.64 761.274C1535.66 761.274 1754.57 973.697 1754.57 1235.72C1754.57 1496.67 1535.66 1710.17 1265.64 1710.17ZM4848.12 4704.59H4004.72V3423.58C4004.72 3118.42 3999.17 2724.84 3565.8 2724.84C3126.88 2724.84 3060.21 3058.03 3060.21 3402.01V4704.59H2217.93V2069.24H3026.88V2429.39H3037.99C3150.22 2222.36 3425.79 2003.47 3835.82 2003.47C4690.33 2003.47 4848.12 2549.08 4848.12 3258.6V4704.59Z" fill="#41B3A7"/>
</svg>
