<svg width="4943" height="4943" viewBox="0 0 4943 4943" fill="none" xmlns="http://www.w3.org/2000/svg">
<path d="M2471.36 4942.72C3836.26 4942.72 4942.72 3836.26 4942.72 2471.36C4942.72 1106.47 3836.26 0 2471.36 0C1106.47 0 0 1106.47 0 2471.36C0 3836.26 1106.47 4942.72 2471.36 4942.72Z" fill="#41B3A7"/>
<path d="M3132.05 2169.41C2975.94 1480.47 2607.03 1253.94 2567.3 1167.39C2523.86 1106.33 2479.84 997.729 2479.84 997.729C2479.11 995.895 2477.96 992.661 2476.6 989.523C2472.12 1050.58 2469.8 1074.14 2412.07 1135.73C2322.68 1205.62 1864.03 1590.47 1826.71 2373.2C1791.91 3103.21 2354.05 3538.21 2430.07 3593.67L2438.71 3599.8V3599.27C2439.2 3602.94 2462.85 3773.04 2479.45 3953.27H2539.02C2552.99 3825.87 2573.94 3699.33 2601.77 3574.22L2606.59 3571.08C2640.6 3546.7 2673.02 3520.18 2703.66 3491.68L2707.14 3488.54C2868.74 3339.25 3159.27 2993.93 3156.42 2443.38C3155.82 2351.54 3147.67 2259.91 3132.05 2169.41ZM2473.13 3181.5C2473.13 3181.5 2473.13 2157.63 2506.92 2157.82C2533.27 2157.82 2567.4 3478.5 2567.4 3478.5C2520.48 3472.85 2473.13 3261.15 2473.13 3181.5Z" fill="white"/>
</svg>
