<svg width="85" height="70" viewBox="0 0 85 70" fill="none" xmlns="http://www.w3.org/2000/svg">
<path d="M13.6283 27.315C14.9602 28.394 16.564 28.9184 18.1584 28.9184C20.2615 28.9184 22.346 28.0062 23.77 26.249C26.2706 23.1582 25.7935 18.6095 22.7043 16.1081C21.2084 14.8962 19.3368 14.3391 17.4119 14.5403C15.4967 14.7415 13.7737 15.6762 12.561 17.1734C11.3483 18.6705 10.7928 20.5493 10.9932 22.465C11.1948 24.3802 12.1308 26.1023 13.6283 27.315ZM15.0523 19.1896C15.7253 18.3578 16.6827 17.8383 17.7468 17.7264C17.8894 17.7114 18.0316 17.7046 18.1726 17.7046C19.0863 17.7046 19.9658 18.0144 20.6873 18.5982C22.4025 19.9878 22.6684 22.5151 21.2787 24.2315C19.889 25.9488 17.3586 26.2134 15.6437 24.8238C14.8127 24.1499 14.2916 23.1933 14.1805 22.1293C14.0694 21.0652 14.3781 20.0214 15.0523 19.1896Z" fill="#001219"/>
<path d="M45.8355 46.6543C44.014 46.0277 42.0596 46.1465 40.3274 46.9916C38.5968 47.8359 37.298 49.3035 36.6702 51.125C36.0424 52.9465 36.1632 54.9034 37.0067 56.6332C37.8518 58.3646 39.3195 59.6633 41.141 60.2903C41.9093 60.5553 42.7027 60.687 43.4945 60.687C44.5743 60.687 45.6493 60.4414 46.6495 59.9538C48.3801 59.1095 49.6789 57.6415 50.3067 55.8204C50.9344 53.9993 50.8136 52.042 49.9685 50.3114C49.125 48.5808 47.657 47.2816 45.8355 46.6543ZM47.2753 54.7765C46.9278 55.7889 46.2064 56.6041 45.2441 57.0731C44.2818 57.5421 43.1988 57.6104 42.1832 57.2601C41.1721 56.9119 40.3573 56.1904 39.8874 55.229C39.418 54.2675 39.3522 53.1804 39.7012 52.1689C40.0486 51.1565 40.7701 50.3413 41.7324 49.8723C42.2959 49.5968 42.8934 49.4671 43.482 49.4671C44.9654 49.4671 46.3942 50.2949 47.089 51.7164C47.5584 52.6783 47.6243 53.765 47.2753 54.7765Z" fill="#001219"/>
<path d="M60.8738 35.5166C59.8534 33.8829 58.2573 32.7453 56.3796 32.3111C54.508 31.8808 52.5738 32.2016 50.9369 33.2224C49.3033 34.2437 48.1657 35.8389 47.7322 37.7158C46.8386 41.5895 49.2629 45.4688 53.1373 46.364C53.6803 46.4892 54.2232 46.5494 54.7585 46.5494C58.0399 46.5494 61.0164 44.2896 61.7847 40.9597C62.2182 39.0836 61.8942 37.1502 60.8738 35.5166ZM58.6612 40.2394C58.1652 42.3901 56.0148 43.7346 53.8572 43.2417C51.7057 42.744 50.358 40.5884 50.8557 38.4361C51.0953 37.3938 51.7287 36.5083 52.6364 35.9411C53.2812 35.538 54.0087 35.3307 54.7504 35.3307C55.0526 35.3307 55.3576 35.3651 55.6597 35.4342C56.702 35.6753 57.5891 36.308 58.1555 37.2157C58.7239 38.1218 58.9024 39.1963 58.6612 40.2394Z" fill="#001219"/>
<path d="M21.1696 37.7172C20.7362 35.84 19.5986 34.2447 17.9649 33.2239C16.3313 32.203 14.3971 31.8787 12.5222 32.3129C10.6442 32.7464 9.04809 33.884 8.02806 35.5176C7.00804 37.1513 6.68365 39.0847 7.11711 40.9603C7.88546 44.2911 10.8619 46.5501 14.1434 46.5501C14.6786 46.5501 15.2216 46.4907 15.7645 46.3646C19.6394 45.4702 22.0632 41.5909 21.1696 37.7172ZM15.045 43.2419C12.8951 43.7413 10.7387 42.3912 10.241 40.2396C9.99985 39.1974 10.1784 38.1232 10.7464 37.2163C11.3128 36.3086 12.2003 35.6756 13.2421 35.4356C13.5443 35.3657 13.8493 35.3318 14.1515 35.3318C14.8931 35.3318 15.6207 35.539 16.2654 35.9422C17.1732 36.5094 17.807 37.3953 18.0461 38.4371C18.5438 40.5895 17.1966 42.7455 15.045 43.2419Z" fill="#001219"/>
<path d="M41.6639 13.8671C41.6639 9.89084 38.4293 6.65625 34.4531 6.65625C30.4768 6.65625 27.2422 9.89084 27.2422 13.8671C27.2422 17.8434 30.4768 21.078 34.4531 21.078C38.4293 21.078 41.6639 17.8434 41.6639 13.8671ZM34.4531 17.8729C32.2433 17.8729 30.4469 16.0756 30.4469 13.8667C30.4469 11.6578 32.2433 9.86055 34.4531 9.86055C36.6628 9.86055 38.4592 11.6578 38.4592 13.8667C38.4592 16.0756 36.6628 17.8729 34.4531 17.8729Z" fill="#001219"/>
<path d="M50.7458 28.9221C52.3403 28.9221 53.9444 28.3978 55.2759 27.3188C56.7734 26.106 57.7094 24.3839 57.911 22.4679C58.1114 20.5527 57.5559 18.673 56.3432 17.1763C53.841 14.0871 49.2903 13.6108 46.2015 16.1106C43.1107 18.6128 42.6337 23.1619 45.1342 26.2523C46.5582 28.0096 48.6427 28.9221 50.7458 28.9221ZM48.2169 18.6019C49.9366 17.2098 52.4623 17.4776 53.8519 19.1933C54.5266 20.0251 54.8348 21.0689 54.7233 22.133C54.6122 23.197 54.0911 24.1541 53.2601 24.8275C51.5404 26.2196 49.0164 25.9525 47.6251 24.2353C46.2359 22.5188 46.5021 19.9915 48.2169 18.6019Z" fill="#001219"/>
<path d="M28.5707 46.9919C26.8385 46.1468 24.8836 46.0272 23.0625 46.6546C21.2414 47.282 19.7734 48.5807 18.9299 50.3118C18.0848 52.0424 17.9644 53.9992 18.5918 55.8207C19.2192 57.6422 20.5179 59.1098 22.2489 59.9541C23.2488 60.4417 24.3237 60.6873 25.404 60.6873C26.1941 60.6873 26.9891 60.5561 27.7575 60.2906C29.579 59.6641 31.0466 58.3649 31.8901 56.6343C32.7352 54.9037 32.8556 52.9469 32.2282 51.1254C31.6009 49.3039 30.3013 47.8358 28.5707 46.9919ZM29.0086 55.2301C28.5408 56.1907 27.7252 56.9122 26.7144 57.2605C25.7005 57.6111 24.6158 57.542 23.6536 57.0734C22.6913 56.6048 21.9698 55.7896 21.6224 54.7769C21.2734 53.7653 21.3392 52.6782 21.8086 51.7168C22.5034 50.2952 23.9323 49.4675 25.4157 49.4675C26.0043 49.4675 26.6017 49.5975 27.1653 49.8726C28.1275 50.3413 28.849 51.1565 29.1964 52.1692C29.5455 53.1808 29.4796 54.2674 29.0086 55.2301Z" fill="#001219"/>
<path d="M84.9183 67.3746C84.8217 66.496 84.0392 65.8553 83.1489 65.9591C70.198 67.3798 65.0296 52.4559 64.8151 51.8197C64.7605 51.6569 64.6652 51.5232 64.5687 51.3919C67.3225 46.4428 68.9045 40.7561 68.9045 34.7018C68.9045 15.7051 53.4498 0.25 34.4526 0.25C15.4555 0.25 0 15.7055 0 34.7018C0 53.6982 15.4547 69.1537 34.4518 69.1537C46.0224 69.1537 56.2549 63.4019 62.5056 54.6273C64.418 58.8831 70.2287 69.2615 81.4146 69.2615C82.0909 69.2615 82.7869 69.2232 83.502 69.1436C84.3814 69.0466 85.0152 68.254 84.9183 67.3746ZM34.4518 65.949C17.2225 65.949 3.2047 51.9316 3.2047 34.7018C3.2047 17.4721 17.2225 3.4547 34.4518 3.4547C51.6812 3.4547 65.699 17.4721 65.699 34.7018C65.699 51.9316 51.6812 65.949 34.4518 65.949Z" fill="#001219"/>
</svg>
