<svg width="4897" height="4897" viewBox="0 0 4897 4897" fill="none" xmlns="http://www.w3.org/2000/svg">
<path d="M1 1H4895.73V4895.73H1V1Z" fill="#41B3A7" stroke="white" stroke-width="0.96641"/>
<path d="M2278.85 424.353C2381.13 365.806 2514.36 365.542 2616.55 424.353C3130.69 714.865 3644.98 1004.92 4159.03 1295.61C4255.71 1350.07 4320.38 1457.67 4319.4 1569.08V3316.91C4320.12 3432.93 4249.06 3543.11 4147.05 3596.33C3634.61 3885.24 3122.43 4174.51 2610.07 4463.42C2505.67 4523.11 2369.78 4518.51 2268.64 4453.93C2115.01 4364.87 1961.11 4276.25 1807.47 4187.28C1776.07 4168.56 1740.68 4153.66 1718.51 4123.22C1738.11 4096.8 1773.15 4093.51 1801.62 4081.98C1865.75 4061.59 1924.65 4028.86 1983.56 3997.09C1998.46 3986.9 2016.65 3990.8 2030.93 3999.93C2162.3 4075.25 2292.51 4152.76 2424.33 4227.37C2452.45 4243.6 2480.92 4222.05 2504.95 4208.65C3007.82 3924.44 3511.3 3641.3 4014.08 3357.01C4032.71 3348.05 4043.01 3328.27 4041.49 3307.86C4041.85 2731.29 4041.58 2154.62 4041.67 1578.04C4043.8 1554.89 4030.4 1533.6 4009.47 1524.12C3498.8 1236.54 2988.4 948.506 2477.82 660.844C2468.97 654.762 2458.49 651.499 2447.76 651.483C2437.02 651.468 2426.54 654.7 2417.67 660.756C1907.09 948.506 1396.78 1236.8 886.202 1524.37C865.34 1533.86 851.338 1554.8 853.821 1578.04C853.909 2154.62 853.821 2731.29 853.821 3307.95C852.936 3317.91 855.123 3327.9 860.087 3336.57C865.052 3345.25 872.556 3352.2 881.588 3356.48C1017.84 3433.74 1154.27 3510.46 1290.6 3587.46C1367.41 3628.8 1461.72 3653.37 1546.34 3621.69C1621.02 3594.91 1673.36 3518.7 1671.94 3439.41C1672.64 2866.2 1671.59 2292.91 1672.47 1719.79C1670.6 1694.34 1694.74 1673.32 1719.48 1675.71C1784.95 1675.27 1850.5 1674.83 1915.97 1675.89C1943.29 1675.27 1962.1 1702.67 1958.72 1728.31C1958.46 2305.15 1959.42 2882 1958.28 3458.83C1958.46 3612.57 1895.3 3779.85 1753.1 3855.07C1577.91 3945.82 1361.39 3926.57 1188.32 3839.55C1038.5 3764.77 895.516 3676.52 748.35 3596.41C646.082 3543.47 575.371 3432.86 576.091 3316.93V1569.08C575.018 1455.37 642.262 1345.81 741.959 1292.14C1254.32 1003 1766.58 713.631 2278.85 424.353Z" fill="white"/>
<path d="M2725.9 1635.1C2949.36 1620.72 3188.59 1626.58 3389.67 1736.67C3545.36 1821.03 3631.67 1998.07 3634.42 2171.04C3630.07 2194.37 3605.68 2207.24 3583.41 2205.64C3518.58 2205.55 3453.73 2206.52 3388.89 2205.2C3361.39 2206.25 3345.41 2180.9 3341.95 2156.58C3323.32 2073.82 3278.19 1991.86 3200.3 1951.94C3080.72 1892.07 2942.08 1895.09 2811.69 1896.34C2716.5 1901.39 2614.14 1909.63 2533.5 1965.61C2471.59 2008.01 2452.79 2093.6 2474.88 2162.53C2495.71 2212.03 2552.85 2228 2599.6 2242.72C2868.9 2313.15 3154.27 2306.14 3418.42 2398.83C3527.79 2436.62 3634.77 2510.08 3672.21 2624.58C3721.17 2778.05 3699.71 2961.49 3590.52 3084.7C3501.97 3186.08 3373.01 3241.27 3244.39 3271.24C3073.27 3309.39 2895.69 3310.36 2721.92 3293.42C2558.52 3274.79 2388.48 3231.86 2262.34 3120.53C2154.47 3026.87 2101.79 2880.94 2107.02 2740.09C2108.27 2716.3 2131.95 2699.72 2154.74 2701.67C2220.03 2701.14 2285.32 2700.97 2350.61 2701.76C2376.68 2699.89 2396.02 2722.43 2397.35 2747.01C2409.4 2825.86 2439.03 2908.62 2507.79 2955.37C2640.49 3040.97 2806.99 3035.11 2958.93 3037.51C3084.8 3031.92 3226.11 3030.23 3328.83 2947.04C3383.03 2899.58 3399.09 2820.19 3384.44 2751.89C3368.57 2694.22 3308.25 2667.35 3256.45 2649.78C2990.6 2565.69 2702.04 2596.2 2438.77 2501.1C2331.89 2463.33 2228.53 2391.91 2187.47 2282.11C2130.17 2126.7 2156.43 1934.47 2277.06 1815.43C2394.68 1697.01 2564.47 1651.41 2725.9 1635.09V1635.1Z" fill="white"/>
</svg>
