<svg width="4709" height="4190" viewBox="0 0 4709 4190" fill="none" xmlns="http://www.w3.org/2000/svg">
<path d="M3871.31 1357.8C3822.46 1340.99 3771.85 1325.08 3719.74 1310.03C3728.3 1275.08 3736.16 1240.57 3743.15 1206.65C3857.89 649.712 3782.87 201.034 3526.7 53.3104C3281.07 -88.3371 2879.36 59.3531 2473.66 412.428C2434.64 446.38 2395.52 482.326 2356.41 519.999C2330.36 495.074 2304.34 470.987 2278.4 447.947C1853.2 70.4161 1427.01 -88.6807 1171.1 59.4704C925.7 201.529 853.028 623.328 956.307 1151.15C966.28 1202.13 977.938 1254.19 991.122 1307.13C930.804 1324.25 872.572 1342.5 816.855 1361.92C318.361 1535.72 0 1808.1 0 2090.63C0 2382.44 341.761 2675.12 860.981 2852.58C901.956 2866.59 944.473 2879.83 988.289 2892.4C974.066 2949.65 961.696 3005.76 951.312 3060.48C852.835 3579.14 929.739 3990.97 1174.48 4132.13C1427.28 4277.91 1851.54 4128.07 2264.67 3766.95C2297.32 3738.4 2330.09 3708.13 2362.92 3676.4C2405.47 3717.37 2447.95 3756.15 2490.21 3792.52C2890.37 4136.87 3285.59 4275.92 3530.11 4134.37C3782.65 3988.17 3864.73 3545.76 3758.17 3007.5C3750.03 2966.39 3740.56 2924.39 3729.93 2881.65C3759.72 2872.84 3788.97 2863.75 3817.49 2854.29C4357.27 2675.45 4708.47 2386.33 4708.47 2090.63C4708.47 1807.08 4379.84 1532.86 3871.31 1357.8ZM3754.23 2663.37C3728.49 2671.89 3702.07 2680.13 3675.15 2688.12C3615.56 2499.47 3535.14 2298.87 3436.72 2091.61C3530.64 1889.3 3607.95 1691.26 3665.87 1503.84C3714.04 1517.77 3760.79 1532.48 3805.83 1547.99C4241.55 1697.98 4507.33 1919.75 4507.33 2090.63C4507.33 2272.65 4220.29 2508.94 3754.23 2663.37ZM3560.85 3046.56C3607.97 3284.58 3614.7 3499.77 3583.49 3667.99C3555.44 3819.15 3499.05 3919.93 3429.32 3960.3C3280.93 4046.18 2963.61 3934.54 2621.39 3640.05C2582.16 3606.29 2542.64 3570.24 2503 3532.09C2635.67 3386.99 2768.27 3218.31 2897.68 3030.97C3125.3 3010.77 3340.34 2977.75 3535.36 2932.67C3544.97 2971.41 3553.5 3009.41 3560.85 3046.56ZM1605.22 3945.45C1460.25 3996.65 1344.78 3998.12 1274.99 3957.87C1126.47 3872.21 1064.72 3541.55 1148.94 3097.99C1158.59 3047.19 1170.07 2995.01 1183.31 2941.68C1376.19 2984.33 1589.66 3015.02 1817.82 3033.51C1948.11 3216.83 2084.53 3385.33 2222.02 3532.87C2191.98 3561.87 2162.06 3589.48 2132.31 3615.49C1949.62 3775.18 1766.56 3888.47 1605.22 3945.45ZM926.035 2662.25C696.445 2583.78 506.842 2481.79 376.877 2370.5C260.096 2270.49 201.136 2171.2 201.136 2090.63C201.136 1919.18 456.748 1700.5 883.065 1551.86C934.793 1533.82 988.943 1516.83 1045.14 1500.86C1104.06 1692.52 1181.35 1892.9 1274.62 2095.53C1180.14 2301.16 1101.75 2504.74 1042.25 2698.64C1002.19 2687.13 963.381 2675.01 926.035 2662.25ZM1153.7 1112.52C1065.22 660.297 1123.99 319.156 1271.87 233.552C1429.39 142.359 1777.71 272.382 2144.83 598.361C2168.3 619.196 2191.86 641.004 2215.49 663.565C2078.68 810.459 1943.51 977.694 1814.38 1159.93C1592.94 1180.46 1380.96 1213.43 1186.07 1257.58C1173.82 1208.29 1162.97 1159.86 1153.7 1112.52ZM3184.73 1614.03C3138.14 1533.56 3090.31 1454.98 3041.54 1378.56C3191.77 1397.55 3335.71 1422.76 3470.88 1453.61C3430.3 1583.67 3379.72 1719.65 3320.18 1859.05C3277.47 1777.96 3232.3 1696.21 3184.73 1614.03ZM2356.48 807.317C2449.26 907.83 2542.17 1020.05 2633.56 1141.81C2541.47 1137.46 2448.24 1135.2 2354.23 1135.2C2261.12 1135.2 2168.58 1137.41 2077.06 1141.69C2168.54 1021.06 2262.25 908.987 2356.48 807.317ZM1522.93 1615.42C1476.39 1696.12 1432.06 1777.44 1390.02 1858.9C1331.44 1719.98 1281.33 1583.38 1240.4 1451.48C1374.74 1421.42 1517.99 1396.84 1667.27 1378.21C1617.82 1455.34 1569.6 1534.49 1522.93 1615.41V1615.42ZM1671.57 2817.41C1517.34 2800.2 1371.93 2776.89 1237.62 2747.65C1279.21 2613.4 1330.43 2473.88 1390.24 2331.97C1432.39 2413.38 1476.9 2494.72 1523.73 2575.6H1523.73C1571.43 2657.99 1620.85 2738.7 1671.57 2817.41ZM2362.05 3388.13C2266.71 3285.27 2171.62 3171.49 2078.75 3049.1C2168.91 3052.64 2260.82 3054.45 2354.23 3054.45C2450.21 3054.45 2545.08 3052.29 2638.46 3048.13C2546.77 3172.72 2454.2 3286.68 2362.05 3388.13ZM3322.1 2324.74C3385.03 2468.18 3438.08 2606.97 3480.21 2738.94C3343.69 2770.08 3196.29 2795.17 3040.99 2813.81C3089.87 2736.35 3138.12 2656.43 3185.53 2574.22C3233.49 2491.04 3279.04 2407.75 3322.1 2324.74ZM3011.3 2473.73C2937.7 2601.35 2862.13 2723.17 2785.42 2838.17C2645.7 2848.16 2501.35 2853.31 2354.23 2853.31C2207.71 2853.31 2065.18 2848.75 1927.93 2839.85C1848.13 2723.34 1770.92 2601.16 1697.79 2474.83H1697.81C1624.87 2348.84 1557.74 2221.8 1496.91 2095.46C1557.72 1968.83 1624.68 1841.64 1697.2 1715.89L1697.18 1715.91C1769.89 1589.82 1846.42 1468.23 1925.49 1352.45C2065.52 1341.87 2209.11 1336.34 2354.23 1336.34H2354.23C2500.01 1336.34 2643.78 1341.91 2783.77 1352.59C2861.63 1467.51 2937.64 1588.71 3010.64 1714.82C3084.46 1842.35 3152.28 1968.69 3213.62 2092.6C3152.47 2218.65 3084.8 2346.26 3011.3 2473.73ZM3426.23 227.568C3583.91 318.494 3645.22 685.197 3546.16 1166.06C3539.84 1196.74 3532.72 1227.99 3525 1259.66C3329.65 1214.59 3117.53 1181.05 2895.44 1160.22C2766.06 975.976 2631.99 808.481 2497.42 663.473C2533.6 628.667 2569.73 595.478 2605.71 564.158C2953.32 261.646 3278.21 142.208 3426.23 227.568ZM2354.23 1670.18C2586.44 1670.18 2774.68 1858.42 2774.68 2090.63C2774.68 2322.84 2586.44 2511.08 2354.23 2511.08C2122.03 2511.08 1933.78 2322.84 1933.78 2090.63C1933.78 1858.42 2122.03 1670.18 2354.23 1670.18Z" fill="#41B3A7"/>
</svg>
