<svg width="5213" height="4951" viewBox="0 0 5213 4951" fill="none" xmlns="http://www.w3.org/2000/svg">
<path d="M3611.41 3457.07C3803.75 3437.17 3949.67 3271.28 3943.03 3072.22C3936.4 2873.15 3770.59 2713.9 3571.61 2713.9H3558.35C3352.74 2720.54 3193.55 2893.06 3200.19 3098.76C3206.82 3198.29 3246.62 3284.55 3306.31 3344.27C3080.8 3788.85 2735.91 4113.98 2218.57 4386.04C1867.04 4571.83 1502.25 4638.19 1137.46 4591.74C838.994 4551.92 606.855 4419.22 460.938 4200.25C248.696 3875.11 228.799 3523.43 407.878 3171.75C533.896 2919.6 732.873 2733.81 858.892 2640.91C832.362 2554.65 792.566 2408.67 772.669 2302.5C-189.053 2999.23 -89.5646 3941.46 202.268 4386.04C421.143 4717.81 865.525 4923.51 1356.33 4923.51C1488.99 4923.51 1621.64 4910.24 1754.29 4877.06C2603.26 4711.18 3246.62 4206.88 3611.41 3457.07ZM4778.74 2634.28C4274.66 2043.72 3531.82 1718.58 2682.85 1718.58H2576.73C2517.03 1599.15 2391.01 1519.52 2251.73 1519.52H2238.47C2032.86 1526.16 1873.67 1698.68 1880.31 1904.38C1886.94 2103.44 2052.75 2262.69 2251.73 2262.69H2265C2410.91 2256.06 2536.93 2163.16 2589.99 2037.09H2709.38C3213.45 2037.09 3691 2183.07 4122.11 2468.39C4453.74 2687.36 4692.51 2972.69 4825.17 3317.73C4937.92 3596.42 4931.29 3868.47 4811.9 4100.71C4626.19 4452.39 4314.46 4644.82 3903.24 4644.82C3637.94 4644.82 3385.9 4565.2 3253.25 4505.48C3180.29 4571.83 3047.64 4678 2954.78 4744.35C3239.98 4877.06 3531.82 4950.05 3810.38 4950.05C4447.11 4950.05 4918.02 4598.37 5097.1 4246.69C5289.45 3861.84 5276.18 3198.29 4778.74 2634.28ZM1409.39 3569.88C1416.03 3768.94 1581.84 3928.19 1780.82 3928.19H1794.08C1999.69 3921.56 2158.87 3749.03 2152.24 3543.33C2145.61 3344.27 1979.8 3185.02 1780.82 3185.02H1767.55C1754.29 3185.02 1734.39 3185.02 1721.13 3191.66C1449.19 2740.44 1336.44 2249.42 1376.23 1718.58C1402.76 1320.46 1535.41 975.412 1767.55 690.088C1959.9 444.576 2331.32 325.137 2583.36 318.502C3286.41 305.231 3584.88 1181.11 3604.77 1532.79C3691 1552.7 3836.91 1599.15 3936.4 1632.32C3856.81 557.378 3193.55 0 2556.83 0C1959.9 0 1409.39 431.305 1190.52 1068.31C885.422 1917.65 1084.4 2733.81 1455.82 3377.45C1422.66 3423.9 1402.76 3496.89 1409.39 3569.88Z" fill="#41B3A7"/>
</svg>
