<svg width="19110" height="7035" viewBox="0 0 19110 7035" fill="none" xmlns="http://www.w3.org/2000/svg">
<rect width="19109" height="7034.64" rx="3517.32" fill="#41B2A7"/>
<path d="M3693.04 4866.95L3043.1 3769.95H2558.46V4866.95H2295.48V2240.9H3084.42C3377.46 2240.9 3599.11 2311.03 3749.39 2451.28C3902.17 2591.54 3978.56 2775.63 3978.56 3003.54C3978.56 3193.89 3923.46 3356.69 3813.26 3491.94C3705.56 3624.68 3545.27 3711.09 3332.38 3751.16L4008.61 4866.95H3693.04ZM2558.46 3555.8H3088.18C3293.56 3555.8 3447.59 3505.71 3550.28 3405.53C3655.47 3305.35 3708.06 3171.35 3708.06 3003.54C3708.06 2830.73 3657.97 2697.98 3557.79 2605.32C3457.61 2510.14 3299.82 2462.55 3084.42 2462.55H2558.46V3555.8ZM6356.34 3736.13C6356.34 3826.3 6353.83 3895.18 6348.82 3942.76H4646.96C4654.47 4098.05 4692.04 4230.79 4759.67 4340.99C4827.29 4451.19 4916.2 4535.1 5026.4 4592.7C5136.61 4647.8 5256.83 4675.35 5387.06 4675.35C5557.38 4675.35 5700.14 4634.03 5815.35 4551.38C5933.06 4468.72 6010.7 4357.27 6048.27 4217.01H6326.28C6276.19 4417.38 6168.49 4581.43 6003.19 4709.16C5840.39 4834.39 5635.02 4897.01 5387.06 4897.01C5194.21 4897.01 5021.39 4854.43 4868.62 4769.27C4715.84 4681.61 4595.62 4558.89 4507.96 4401.1C4422.8 4240.81 4380.22 4054.22 4380.22 3841.33C4380.22 3628.44 4422.8 3441.85 4507.96 3281.55C4593.11 3121.26 4712.08 2998.53 4864.86 2913.38C5017.64 2828.22 5191.71 2785.65 5387.06 2785.65C5582.42 2785.65 5752.73 2828.22 5898 2913.38C6045.77 2998.53 6158.48 3113.75 6236.12 3259.01C6316.26 3401.77 6356.34 3560.81 6356.34 3736.13ZM6089.6 3728.62C6092.1 3575.84 6060.8 3445.6 5995.68 3337.91C5933.06 3230.21 5846.65 3148.81 5736.45 3093.71C5626.25 3038.61 5506.03 3011.06 5375.79 3011.06C5180.44 3011.06 5013.88 3073.67 4876.13 3198.9C4738.38 3324.13 4661.99 3500.7 4646.96 3728.62H6089.6ZM7543.77 4897.01C7308.34 4897.01 7115.49 4843.16 6965.21 4735.46C6817.44 4625.26 6734.79 4476.24 6717.26 4288.39H6987.76C7000.28 4403.61 7054.13 4497.53 7149.3 4570.16C7246.98 4640.29 7377.22 4675.35 7540.02 4675.35C7682.78 4675.35 7794.23 4641.54 7874.38 4573.92C7957.03 4506.29 7998.36 4422.39 7998.36 4322.21C7998.36 4252.08 7975.81 4194.47 7930.73 4149.39C7885.65 4104.31 7828.04 4069.24 7757.92 4044.2C7690.29 4016.65 7597.62 3987.84 7479.91 3957.79C7327.13 3917.72 7203.15 3877.64 7107.98 3837.57C7012.8 3797.5 6931.4 3738.64 6863.78 3661C6798.66 3580.85 6766.1 3474.41 6766.1 3341.66C6766.1 3241.48 6796.16 3148.81 6856.27 3063.65C6916.38 2978.5 7001.53 2910.87 7111.73 2860.78C7221.93 2810.69 7347.16 2785.65 7487.42 2785.65C7707.82 2785.65 7885.65 2842 8020.9 2954.7C8156.14 3064.91 8228.78 3217.69 8238.79 3413.04H7975.81C7968.3 3292.82 7920.71 3196.4 7833.05 3123.76C7747.9 3048.63 7630.18 3011.06 7479.91 3011.06C7347.16 3011.06 7239.47 3042.36 7156.82 3104.98C7074.16 3167.59 7032.84 3245.24 7032.84 3337.91C7032.84 3418.05 7056.63 3484.42 7104.22 3537.02C7154.31 3587.11 7215.67 3627.18 7288.31 3657.24C7360.94 3684.79 7458.62 3716.1 7581.34 3751.16C7729.11 3791.23 7846.83 3830.06 7934.49 3867.62C8022.15 3905.19 8097.29 3960.29 8159.9 4032.93C8222.52 4105.56 8255.07 4201.99 8257.58 4322.21C8257.58 4432.41 8227.52 4531.34 8167.41 4619C8107.3 4704.16 8023.4 4771.78 7915.7 4821.87C7808.01 4871.96 7684.03 4897.01 7543.77 4897.01ZM10529.6 2815.7V4866.95H10266.6V4506.29C10206.5 4634.03 10113.8 4731.71 9988.62 4799.33C9863.39 4866.95 9723.13 4900.76 9567.85 4900.76C9322.4 4900.76 9122.03 4825.63 8966.75 4675.35C8811.46 4522.57 8733.82 4302.17 8733.82 4014.14V2815.7H8993.05V3984.09C8993.05 4207 9048.15 4377.31 9158.35 4495.02C9271.05 4612.74 9423.83 4671.6 9616.69 4671.6C9814.55 4671.6 9972.34 4608.98 10090.1 4483.75C10207.8 4358.52 10266.6 4174.44 10266.6 3931.49V2815.7H10529.6ZM13572 2778.13C13812.4 2778.13 14007.8 2854.52 14158 3007.3C14310.8 3157.58 14387.2 3376.73 14387.2 3664.75V4866.95H14128V3694.81C14128 3471.9 14074.1 3301.59 13966.4 3183.87C13858.7 3066.16 13712.2 3007.3 13526.9 3007.3C13334 3007.3 13180 3071.17 13064.8 3198.9C12949.6 3326.63 12892 3511.97 12892 3754.92V4866.95H12632.8V3694.81C12632.8 3471.9 12578.9 3301.59 12471.2 3183.87C12363.5 3066.16 12215.7 3007.3 12027.9 3007.3C11835 3007.3 11681 3071.17 11565.8 3198.9C11450.6 3326.63 11393 3511.97 11393 3754.92V4866.95H11130V2815.7H11393V3168.85C11458.1 3041.11 11550.8 2944.69 11671 2879.57C11791.2 2811.94 11925.2 2778.13 12073 2778.13C12250.8 2778.13 12406.1 2820.71 12538.8 2905.87C12674.1 2991.02 12771.8 3116.25 12831.9 3281.55C12887 3118.75 12980.9 2994.78 13113.6 2909.62C13248.9 2821.96 13401.7 2778.13 13572 2778.13ZM16827.2 3736.13C16827.2 3826.3 16824.6 3895.18 16819.6 3942.76H15117.8C15125.3 4098.05 15162.9 4230.79 15230.5 4340.99C15298.1 4451.19 15387 4535.1 15497.2 4592.7C15607.4 4647.8 15727.6 4675.35 15857.9 4675.35C16028.2 4675.35 16171 4634.03 16286.2 4551.38C16403.9 4468.72 16481.5 4357.27 16519.1 4217.01H16797.1C16747 4417.38 16639.3 4581.43 16474 4709.16C16311.2 4834.39 16105.8 4897.01 15857.9 4897.01C15665 4897.01 15492.2 4854.43 15339.4 4769.27C15186.7 4681.61 15066.4 4558.89 14978.8 4401.1C14893.6 4240.81 14851 4054.22 14851 3841.33C14851 3628.44 14893.6 3441.85 14978.8 3281.55C15063.9 3121.26 15182.9 2998.53 15335.7 2913.38C15488.5 2828.22 15662.5 2785.65 15857.9 2785.65C16053.2 2785.65 16223.6 2828.22 16368.8 2913.38C16516.6 2998.53 16629.3 3113.75 16706.9 3259.01C16787.1 3401.77 16827.2 3560.81 16827.2 3736.13ZM16560.4 3728.62C16562.9 3575.84 16531.6 3445.6 16466.5 3337.91C16403.9 3230.21 16317.5 3148.81 16207.3 3093.71C16097.1 3038.61 15976.8 3011.06 15846.6 3011.06C15651.3 3011.06 15484.7 3073.67 15346.9 3198.9C15209.2 3324.13 15132.8 3500.7 15117.8 3728.62H16560.4Z" fill="black"/>
</svg>
