<svg width="6591" height="4943" viewBox="0 0 6591 4943" fill="none" xmlns="http://www.w3.org/2000/svg">
<path d="M5675.21 2841.38C5445.28 2842.58 5245.44 2897.96 5078.11 2979.82C5016.71 2858.23 4955.32 2749.89 4944.48 2670.43C4932.44 2577.74 4918 2521.16 4932.44 2410.4C4946.89 2299.65 5011.9 2141.95 5010.69 2129.91C5009.49 2117.87 4996.25 2061.29 4863.83 2060.09C4731.4 2058.88 4617.04 2085.37 4603.8 2120.28C4590.55 2155.19 4565.27 2234.64 4548.42 2316.5C4525.55 2436.89 4283.57 2866.66 4145.13 3091.78C4100.59 3003.9 4062.07 2926.85 4053.64 2865.45C4041.6 2772.76 4027.16 2716.18 4041.6 2605.43C4056.05 2494.67 4121.06 2336.97 4119.85 2324.93C4118.65 2312.89 4105.41 2256.31 3972.98 2255.11C3840.56 2253.9 3726.2 2280.39 3712.96 2315.3C3699.71 2350.21 3685.27 2432.07 3657.58 2511.53C3629.89 2590.98 3308.47 3308.47 3224.2 3493.86C3180.86 3588.96 3143.54 3664.8 3117.05 3716.57C3117.05 3716.57 3115.85 3720.18 3112.24 3726.2C3089.37 3770.74 3076.12 3794.82 3076.12 3794.82C3076.12 3794.82 3076.12 3794.82 3076.12 3796.02C3058.07 3828.53 3038.8 3858.62 3029.17 3858.62C3021.95 3858.62 3008.71 3771.95 3031.58 3653.97C3079.74 3404.77 3194.1 3017.14 3192.9 3003.9C3192.9 2996.67 3214.57 2929.26 3118.26 2894.35C3024.36 2859.44 2990.65 2917.22 2982.22 2917.22C2973.8 2917.22 2967.78 2937.68 2967.78 2937.68C2967.78 2937.68 3072.51 2501.9 2767.94 2501.9C2577.73 2501.9 2315.3 2710.16 2185.28 2897.96C2103.42 2942.5 1928.87 3037.6 1742.27 3139.93C1671.24 3179.66 1597.81 3219.38 1529.19 3256.7C1524.38 3251.89 1519.56 3245.87 1514.74 3241.05C1146.37 2847.4 464.997 2569.31 493.89 2040.82C504.724 1848.21 570.935 1342.6 1802.46 728.64C2816.09 229.047 3622.67 367.488 3762.31 674.467C3962.15 1112.66 3330.13 1926.46 2282.79 2044.44C1883.12 2088.98 1673.65 1934.89 1620.68 1877.1C1565.31 1816.91 1556.88 1813.3 1536.41 1825.34C1502.71 1843.4 1524.38 1897.57 1536.41 1928.87C1567.71 2010.73 1696.52 2155.19 1914.42 2226.22C2107.03 2288.82 2575.33 2323.73 3142.34 2104.63C3776.76 1859.05 4272.74 1176.47 4127.08 604.645C3981.41 24.3943 3018.34 -167.016 2107.03 156.817C1565.31 349.431 977.833 652.798 555.285 1047.66C53.2845 1517.15 -26.1688 1925.26 6.33483 2096.2C123.107 2702.94 959.775 3097.8 1294.44 3390.33C1277.59 3399.96 1261.94 3408.39 1248.7 3415.61C1081.36 3498.67 443.328 3832.14 284.422 4184.86C103.846 4584.54 313.314 4871.05 451.755 4909.57C881.526 5028.75 1323.33 4814.47 1560.49 4460.54C1797.65 4106.61 1768.76 3646.75 1659.21 3436.07C1658 3433.67 1656.8 3431.26 1654.39 3428.85C1697.73 3403.57 1742.27 3377.09 1785.61 3351.81C1871.08 3301.24 1955.35 3254.29 2027.58 3215.77C1986.65 3327.73 1956.55 3461.35 1942.11 3653.97C1924.05 3880.29 2016.75 4174.03 2138.33 4289.6C2192.51 4340.16 2256.31 4341.36 2297.24 4341.36C2439.29 4341.36 2503.1 4223.38 2574.12 4083.74C2660.8 3912.79 2739.05 3714.16 2739.05 3714.16C2739.05 3714.16 2641.54 4251.07 2906.38 4251.07C3002.69 4251.07 3100.2 4125.87 3143.54 4062.07V4063.27C3143.54 4063.27 3145.95 4059.66 3150.76 4051.24C3160.39 4035.59 3166.41 4025.96 3166.41 4025.96V4023.55C3204.93 3956.13 3291.61 3803.24 3420.42 3549.23C3586.55 3221.79 3746.66 2812.49 3746.66 2812.49C3746.66 2812.49 3761.11 2912.4 3810.47 3078.53C3839.36 3176.05 3899.55 3283.19 3947.7 3386.72C3909.18 3440.89 3885.1 3470.99 3885.1 3470.99C3885.1 3470.99 3885.1 3470.99 3886.31 3472.19C3855.01 3513.12 3821.3 3557.66 3783.98 3601C3652.76 3757.5 3496.26 3936.87 3474.59 3988.64C3449.31 4050.03 3455.33 4094.57 3503.49 4130.69C3538.4 4157.17 3601 4160.79 3664.8 4157.17C3782.78 4148.75 3865.84 4119.85 3906.77 4101.8C3970.58 4078.92 4045.21 4044.01 4115.04 3992.25C4243.85 3897.14 4322.1 3761.11 4314.87 3581.74C4311.26 3483.02 4278.76 3384.31 4239.03 3291.61C4251.07 3274.76 4261.91 3257.91 4273.94 3241.05C4477.39 2943.7 4635.1 2617.46 4635.1 2617.46C4635.1 2617.46 4649.54 2717.38 4698.9 2883.51C4722.98 2967.78 4772.33 3059.27 4815.67 3148.36C4624.26 3303.65 4506.28 3484.23 4464.15 3602.2C4388.31 3821.3 4447.3 3920.02 4559.25 3942.89C4609.81 3953.72 4682.05 3929.65 4735.01 3906.78C4802.43 3885.11 4881.88 3847.79 4957.72 3792.41C5086.54 3697.31 5210.53 3564.89 5203.31 3385.51C5199.7 3303.65 5178.03 3222.99 5147.93 3144.75C5310.45 3077.33 5519.92 3040.01 5787.17 3071.31C6360.2 3138.73 6473.36 3496.27 6451.69 3646.75C6430.02 3797.23 6309.64 3879.09 6269.91 3904.37C6230.18 3929.65 6216.94 3938.07 6220.55 3956.13C6225.37 3982.62 6244.63 3981.41 6278.34 3976.6C6325.29 3968.17 6579.3 3855.01 6590.13 3578.13C6608.19 3224.2 6271.11 2837.77 5675.21 2841.38ZM1254.72 4331.73C1064.51 4538.79 799.665 4617.04 685.3 4550.83C562.508 4479.8 610.662 4174.03 844.207 3954.93C986.26 3821.3 1169.24 3697.31 1290.83 3621.47C1318.52 3604.61 1359.45 3580.53 1408.81 3550.44C1417.23 3545.62 1422.05 3543.22 1422.05 3543.22C1431.68 3537.2 1441.31 3531.18 1450.94 3525.16C1536.41 3838.16 1454.55 4113.84 1254.72 4331.73ZM2639.13 3390.33C2572.92 3551.64 2434.48 3964.56 2350.21 3941.69C2277.98 3922.43 2233.44 3609.43 2335.76 3300.04C2387.53 3144.75 2497.08 2959.35 2560.88 2887.12C2664.41 2771.55 2778.78 2733.03 2806.46 2779.98C2841.38 2841.38 2680.06 3289.21 2639.13 3390.33ZM3781.57 3936.87C3753.89 3951.32 3727.4 3960.95 3715.36 3953.73C3706.94 3948.91 3727.4 3929.65 3727.4 3929.65C3727.4 3929.65 3870.66 3775.56 3927.24 3705.73C3959.74 3664.8 3998.26 3616.65 4039.2 3562.48V3578.13C4039.2 3762.31 3861.03 3886.31 3781.57 3936.87ZM4662.78 3735.83C4642.32 3721.38 4645.93 3673.23 4714.55 3522.75C4741.03 3463.76 4803.63 3365.05 4910.77 3269.94C4922.81 3308.47 4931.24 3345.79 4930.04 3380.7C4928.83 3613.04 4762.7 3699.71 4662.78 3735.83Z" fill="#41B3A7"/>
</svg>
