<svg width="80" height="80" viewBox="0 0 80 80" fill="none" xmlns="http://www.w3.org/2000/svg">
<path d="M77.1017 24.8612C68.8907 4.53793 45.6761 -5.3156 25.3534 2.89536C5.03035 11.1063 -4.82345 34.3204 3.38751 54.644C9.63387 70.1046 24.5602 79.5063 40.2941 79.5052C45.2427 79.5047 50.2735 78.5744 55.1361 76.6098C75.4591 68.3989 85.3129 45.1845 77.1017 24.8612ZM59.1555 59.8043L51.553 51.7601L55.8396 38.5674L66.4135 32.4118L74.5281 42.0038C74.2149 46.6584 72.9546 51.1843 70.8663 55.303L59.1555 59.8043ZM21.3339 59.8043L9.60148 55.2945C9.16326 54.429 8.75637 53.5397 8.38642 52.6242C6.98023 49.1434 6.18919 45.5646 5.9579 42.008L14.076 32.4118L24.6496 38.5674L28.9362 51.7601L21.3339 59.8043ZM26.1987 8.39673L37.5489 12.705V25.683L26.7325 33.5414L16.1916 27.4048V15.2178C19.0246 12.4333 22.3844 10.1033 26.1987 8.39673ZM64.2977 15.2194V27.4051L53.7564 33.5417L42.9403 25.683V12.7047L54.2701 8.40422C57.9624 10.0554 61.3667 12.354 64.2977 15.2194ZM10.8002 27.9362L6.58297 32.9212C7.36651 29.091 8.79545 25.4183 10.8002 22.0708V27.9362ZM33.953 49.7529L30.0642 37.7849L40.2446 30.3883L50.4247 37.7849L46.5362 49.7529H33.953ZM73.9252 32.9434L69.6893 27.9362V22.0392C70.6058 23.5645 71.4159 25.1798 72.1033 26.881C72.9096 28.8769 73.5122 30.9055 73.9252 32.9434ZM45.7987 5.85284L40.2446 7.96119L34.6707 5.84561C38.4098 5.23018 42.1656 5.2516 45.7987 5.85284ZM15.1221 63.1925L20.2391 65.1595L22.8461 69.3642C20.0105 67.7023 17.4026 65.6312 15.1221 63.1925ZM31.4091 72.943L25.4371 63.3116L33.1555 55.1443H47.3337L55.0521 63.3116L49.0683 72.9617C43.1389 74.5419 37.0639 74.4554 31.4091 72.943ZM57.6243 69.3944L60.2504 65.1592L65.3599 63.1952C63.1329 65.5883 60.5414 67.6865 57.6243 69.3944Z" fill="#001219"/>
</svg>
