<svg width="4943" height="4943" viewBox="0 0 4943 4943" fill="none" xmlns="http://www.w3.org/2000/svg">
<path d="M4941.27 0H1.44806C0.64832 0 0 0.64832 0 1.44806V4941.27C0 4942.07 0.64832 4942.72 1.44806 4942.72H4941.27C4942.07 4942.72 4942.72 4942.07 4942.72 4941.27V1.44806C4942.72 0.64832 4942.07 0 4941.27 0Z" fill="#41B3A7"/>
<path d="M2249.44 2741.65H2867.28V2345.85H1139.26V2741.65H1757.1V4508.29H2249.44V2741.65ZM3060.35 4411.75C3138.55 4452.3 3234.12 4482.22 3340.31 4502.5C3446.5 4522.77 3562.35 4532.42 3678.19 4532.42C3794.04 4532.42 3900.23 4521.8 4006.42 4499.6C4112.61 4477.4 4199.5 4440.71 4276.73 4393.41C4354.92 4342.24 4421.53 4277.56 4460.15 4190.68C4498.76 4103.8 4528.69 4007.26 4528.69 3881.76C4528.69 3793.91 4515.18 3717.65 4489.11 3650.07C4463.05 3582.49 4425.4 3524.57 4373.27 3476.3C4324.03 3425.14 4267.07 3379.76 4199.5 3341.15C4131.92 3302.53 4054.69 3261.99 3967.81 3225.3C3904.09 3199.24 3851.96 3174.14 3794.04 3149.04C3743.84 3123.94 3700.4 3098.84 3668.54 3073.74C3632.82 3047.67 3605.79 3020.64 3586.48 2992.65C3567.18 2963.69 3557.52 2931.83 3557.52 2896.11C3557.52 2863.29 3566.11 2833.36 3583.59 2806.33C3601.06 2779.3 3625.1 2757.1 3655.99 2737.79C3686.88 2718.48 3725.5 2704 3771.84 2693.38C3817.21 2682.76 3867.41 2677.94 3926.3 2677.94C3966.84 2677.94 4009.32 2680.93 4051.8 2687.01C4096.2 2693.09 4141.58 2702.46 4186.95 2715.01C4232.32 2727.56 4276.73 2743 4322.1 2762.31C4364.58 2781.62 4404.16 2803.82 4437.95 2828.92V2375.19C4364.58 2347.2 4283.49 2325.96 4196.6 2312.44C4109.72 2298.93 4013.18 2292.17 3897.34 2292.17C3781.49 2292.17 3675.3 2304.72 3569.11 2328.86C3462.92 2352.99 3376.03 2391.61 3298.8 2444.7C3220.61 2496.83 3163.65 2560.55 3115.38 2647.43C3070.01 2728.52 3047.8 2821.2 3047.8 2937.04C3047.8 3081.85 3089.32 3207.35 3173.3 3303.89C3256.33 3410.08 3385.69 3487.31 3549.8 3564.54C3616.41 3591.57 3675.3 3618.6 3733.22 3644.66C3791.14 3670.73 3839.41 3697.76 3878.03 3725.75C3919.54 3753.75 3952.36 3784.64 3974.57 3817.46C3998.7 3850.29 4011.25 3888.9 4011.25 3933.31C4011.25 3964.2 4003.72 3993.16 3989.05 4020.19C3974.37 4047.22 3951.4 4070.39 3920.5 4089.7C3889.61 4109.01 3851.96 4124.45 3804.66 4136.04C3759.29 4146.66 3708.12 4152.45 3640.55 4152.45C3534.35 4152.45 3428.16 4134.11 3331.63 4097.42C3225.43 4060.74 3128.9 4005.71 3060.35 3948.37V4411.75Z" fill="white"/>
</svg>
